<svg width="39" height="38" viewBox="0 0 39 38" fill="none" xmlns="http://www.w3.org/2000/svg">
<path d="M11.3654 20.7113L12.3434 19.3021C12.3951 19.2294 12.543 19.151 12.6249 19.193L13.195 19.4798C13.2812 19.5246 13.3473 19.7023 13.3013 19.7863L12.4439 21.3158C12.3836 21.4277 12.24 21.4697 12.1237 21.4123L11.453 21.0429C11.3252 20.9799 11.285 20.8246 11.3654 20.7113Z" fill="white"/>
<path d="M22.2587 23.3126C22.1697 23.2049 22.0576 22.9586 21.9758 22.8537C21.9485 22.89 21.9155 22.9222 21.8738 22.9446L19.3146 24.3453C19.2973 24.3551 19.2787 24.3551 19.26 24.3607C19.4266 24.5986 19.5602 24.7805 19.6392 24.8841C19.6822 24.9415 19.7655 24.954 19.8259 24.9149L22.2314 23.5029C22.2975 23.4596 22.309 23.3714 22.2587 23.3112V23.3126Z" fill="white"/>
<path d="M14.2593 19.2252C14.2593 19.2252 14.3282 19.4435 14.5365 19.6142H16.6088L16.8271 19.3805L17.1416 19.3721C17.258 18.9075 17.1388 18.2946 17.1086 18.1491L14.2593 18.1589V19.2238V19.2252ZM15.2991 19.1524C15.2991 19.1524 14.5925 18.303 15.5403 18.303L16.5729 18.289C16.5729 18.289 16.7467 18.748 16.4652 19.3385H14.5953C14.5953 19.3385 14.3469 18.8823 14.5092 18.3968C14.5365 18.317 14.6255 18.2624 14.7346 18.3086C14.7346 18.3086 14.6513 19.0642 15.2991 19.1524Z" fill="white"/>
<path d="M20.4506 15.4945H16.9937C16.92 15.4945 16.8602 15.5528 16.8602 15.6247V16.211C16.8602 16.2829 16.92 16.3411 16.9937 16.3411H20.4506C20.5243 16.3411 20.5841 16.2829 20.5841 16.211V15.6247C20.5841 15.5528 20.5243 15.4945 20.4506 15.4945Z" fill="white"/>
<path d="M31.7588 16.5553C31.8062 16.3426 31.8766 15.8906 31.7416 15.44H30.4993C30.5166 15.7213 30.5395 16.2194 30.5137 16.5553H31.7588Z" fill="white"/>
<path d="M28.5275 15.3546C28.5275 15.3546 28.7328 16.1676 28.5691 16.5552H29.4437C29.4437 16.5552 29.6635 15.7296 29.3834 15.3546H28.5275Z" fill="white"/>
<path d="M12.7327 14.599H12.3033C12.2329 14.599 12.1683 14.6339 12.1309 14.6913L12.0878 14.7571H12.7327V14.599Z" fill="white"/>
<path d="M11.9858 14.9208L11.9614 14.9628L12.2917 14.96V15.0579H12.6479L12.7571 15.2188V15.4945H14.9946C14.9946 15.4945 15.1799 15.5421 15.3364 15.3224V14.9208H11.9858Z" fill="white"/>
<path d="M28.4025 16.4895C28.5189 16.2138 28.4068 15.6051 28.3537 15.3938L28.3436 15.3532H22.4597V16.5539H28.3752L28.4025 16.4895Z" fill="white"/>
<path d="M15.5159 14.9208V15.377L15.4843 15.4204C15.3277 15.6387 15.1382 15.6709 15.0391 15.6709C15.0146 15.6709 14.9945 15.6695 14.9787 15.6667H12.5789V15.2693L12.5516 15.2287H12.1136V15.1307H11.5435V16.8687H15.9036L16.0889 16.684H21.4745V14.9194H15.5159V14.9208ZM16.1995 16.4923H15.3363V15.6639H16.1995V16.4923ZM20.7636 16.0221C20.7636 16.2936 20.5338 16.5133 20.2523 16.5133H17.1947C16.9132 16.5133 16.6835 16.2936 16.6835 16.0221V15.8136C16.6835 15.5435 16.9132 15.3224 17.1947 15.3224H20.2523C20.5338 15.3224 20.7636 15.5421 20.7636 15.8136V16.0221Z" fill="white"/>
<path d="M16.0487 15.808H15.4886V16.3453H16.0487V15.808Z" fill="white"/>
<path d="M17.281 16.8561V17.9867L17.2838 18.0035C17.3212 18.1756 17.426 18.7522 17.3284 19.2335L20.5712 18.6066L20.5813 18.6024C20.9044 18.4331 20.5698 18.2554 20.5698 18.2554C20.4333 17.6705 20.778 17.4676 20.778 17.4676H21.4731V16.8575H17.2795L17.281 16.8561ZM18.236 18.8935C18.0321 18.9145 17.7449 18.9425 17.5409 18.9341L17.538 18.9201C18.2102 18.7801 19.5645 18.5115 20.2395 18.3855L20.2423 18.3995C19.5975 18.6682 18.9254 18.8095 18.236 18.8935Z" fill="white"/>
<path d="M16.165 16.8561L15.9798 17.0408H11.499V17.6201C11.8192 17.6495 12.0461 17.7348 12.207 17.8426C12.2515 17.816 12.3018 17.7894 12.3248 17.7894C12.3707 17.7894 12.5962 17.9182 12.7154 18.0203H17.1028V16.8561H16.165ZM17.0009 17.8636H16.5083V17.1415H17.0009V17.8636Z" fill="white"/>
<path d="M16.8587 17.7531H16.6505L16.5873 17.2661H16.9219L16.8587 17.7531Z" fill="white"/>
<path d="M4.95438 17.1416C4.95438 17.1416 4.96013 17.1346 4.96156 17.1318C4.98598 17.0786 4.96013 17.0156 4.90412 16.9918C4.87108 16.9778 4.83518 16.9834 4.80646 16.9988L4.95438 17.1416Z" fill="white"/>
<path d="M4.76626 17.0366C4.76626 17.0366 4.76052 17.0436 4.75908 17.0464C4.73467 17.101 4.76052 17.1626 4.81653 17.1864C4.84956 17.2004 4.88547 17.1948 4.91419 17.1794L4.76626 17.0366Z" fill="white"/>
<path d="M36.1635 16.3649C35.8921 16.3649 35.7672 16.2348 35.7657 16.113C35.7657 16.0669 35.7815 16.0235 35.816 15.9871C35.9137 15.8849 36.1032 15.8779 36.1592 15.8779H37.3498V15.7268C37.3484 15.682 37.311 15.6457 37.2636 15.6457H35.6379C35.5905 15.8192 35.5532 16.1648 35.6121 16.509L35.6322 16.6028H37.2435C37.3053 16.6028 37.3541 16.5538 37.3541 16.4937V16.3649H36.1607H36.1635Z" fill="white"/>
<path d="M37.3569 15.9773H36.1692C36.1247 15.9759 35.9093 15.9815 35.859 16.0459C35.8461 16.0626 35.8403 16.0808 35.8403 16.106C35.8403 16.1648 35.938 16.2655 36.1635 16.2655H37.2937H37.3569V15.9773Z" fill="white"/>
<path d="M35.4397 15.7423H34.95V15.4456L32.4798 15.44C32.6579 15.829 32.6004 16.3356 32.543 16.6924L33.1505 16.698H34.2003V16.9009C34.2003 16.9933 34.2764 17.0674 34.3712 17.0674H34.5838C34.6785 17.0674 34.7547 16.9933 34.7547 16.9009V16.614H34.9083V16.5203H35.4325C35.388 16.2362 35.4009 15.9522 35.4383 15.7423H35.4397ZM34.4746 16.9569C34.4042 16.9569 34.3482 16.9023 34.3482 16.8337C34.3482 16.7652 34.4042 16.7106 34.4746 16.7106C34.545 16.7106 34.601 16.7666 34.601 16.8337C34.601 16.9009 34.5436 16.9569 34.4746 16.9569Z" fill="white"/>
<path d="M3.71502 16.2348C3.7021 16.2571 3.69348 16.2809 3.69348 16.3089C3.69348 16.3929 3.76385 16.4615 3.85002 16.4615C3.87875 16.4615 3.9046 16.4517 3.92757 16.4391L3.71646 16.2362L3.71502 16.2348Z" fill="white"/>
<path d="M3.98355 16.3817C3.99647 16.3593 4.00509 16.3355 4.00509 16.3076C4.00509 16.2236 3.93472 16.155 3.84855 16.155C3.81983 16.155 3.79397 16.1648 3.771 16.1774L3.98211 16.3803L3.98355 16.3817Z" fill="white"/>
<path d="M3.4407 17.9C3.4407 17.9 3.4407 17.9028 3.43927 17.9069C3.43927 17.9181 3.4407 17.9 3.4407 17.9Z" fill="white"/>
<path d="M3.4407 17.9C3.4407 17.9 3.4407 17.9028 3.43927 17.9069C3.43927 17.9181 3.4407 17.9 3.4407 17.9Z" fill="white"/>
<path d="M5.56622 15.4386L5.56335 15.4568C5.50591 15.9102 5.5016 16.9471 5.5016 17.2549C5.5016 17.4033 5.4183 17.5432 5.28617 17.6188C5.06501 17.7447 4.67437 17.893 4.33113 18.0246C4.14156 18.0973 3.9606 18.1659 3.83853 18.2191C3.73369 18.2652 3.64465 18.2876 3.56709 18.2876C3.47231 18.2876 3.39045 18.2527 3.33875 18.1869C3.25976 18.0903 3.26981 17.963 3.28274 17.8944C3.2813 17.837 3.27986 17.6383 3.28561 16.8589C3.29279 15.9466 3.34018 15.5757 3.36747 15.4372H3.23103L3.21667 15.4848C3.15635 15.6891 3.14487 15.9535 3.14199 16.1341C3.12189 17.3725 3.14199 19.6352 3.14199 19.652C3.14199 19.6688 3.13194 19.8577 3.198 20.0606L3.21524 20.1124H7.38583C7.40594 20.1124 7.42605 20.1054 7.44328 20.0942L10.8053 17.6439C11.0251 17.6146 11.2089 17.6104 11.3783 17.6146V16.8687H11.3827V15.4372H5.56622V15.4386ZM7.62854 18.9649C7.05408 18.8362 6.80706 19.3385 6.80706 19.3385H3.52975C3.45795 19.3385 3.39906 19.2826 3.39906 19.214V18.741C3.39906 18.692 3.42922 18.6473 3.47662 18.6263L4.46613 18.2065L4.7232 18.0973C9.40363 16.3244 9.51565 17.56 9.51565 17.56L7.62711 18.9649H7.62854Z" fill="white"/>
<path d="M3.43928 17.907L3.44072 17.9C3.44072 17.9 3.44072 17.9182 3.43928 17.907C3.42779 17.956 3.37034 18.2554 3.77247 18.0791C4.12289 17.9252 4.87544 17.6733 5.20575 17.4858C5.29048 17.4368 5.34362 17.35 5.34362 17.2549C5.34362 16.8953 5.34937 15.8933 5.40681 15.4386H3.52689C3.50534 15.5323 3.44933 15.8682 3.44215 16.8603C3.43641 17.7097 3.43784 17.8818 3.44072 17.907H3.43928ZM4.6198 16.9904C4.66145 16.8981 4.75623 16.8379 4.86107 16.8379C4.89698 16.8379 4.93145 16.8449 4.96448 16.8575C5.09804 16.9121 5.15979 17.0604 5.10235 17.1877C5.0607 17.2801 4.96591 17.3403 4.86107 17.3403C4.82517 17.3403 4.7907 17.3333 4.75767 17.3193C4.62554 17.2647 4.56379 17.1164 4.6198 16.989V16.9904ZM3.85002 16.0025C4.0238 16.0025 4.16454 16.1396 4.16454 16.3089C4.16454 16.4783 4.0238 16.6154 3.85002 16.6154C3.67625 16.6154 3.5355 16.4783 3.5355 16.3089C3.5355 16.1396 3.67625 16.0025 3.85002 16.0025Z" fill="white"/>
<path d="M14.087 19.1636L14.0798 19.1398V18.1925H12.6451L12.5934 18.1477C12.5359 18.0973 12.4526 18.0441 12.3866 18.0063C12.5948 18.247 12.5948 18.5073 12.5948 18.5073L12.1166 19.1804L10.6775 21.2066C10.6675 21.2206 10.6675 21.2388 10.6761 21.2528C11.3942 22.459 13.0529 22.2967 13.0544 22.2953C12.8303 21.618 13.3445 21.4277 13.4823 21.3605C13.5039 21.3507 13.5139 21.327 13.5096 21.3046C13.3876 20.6889 13.8342 20.5265 13.952 20.4846C13.9678 20.479 13.9749 20.4622 13.9706 20.4454C13.771 19.8129 14.0482 19.4994 14.0482 19.4994H14.2852C14.1458 19.3385 14.0927 19.1818 14.0855 19.1608L14.087 19.1636ZM12.0261 21.4375L11.4645 21.1339C11.3324 21.0681 11.1974 20.9505 11.2161 20.7952C11.2204 20.7644 11.2348 20.7364 11.2534 20.7113L12.2975 19.2476C12.365 19.1538 12.4756 19.0978 12.5948 19.0978C12.6551 19.0978 12.714 19.1118 12.7671 19.1398L13.2353 19.3833C13.4077 19.4728 13.4723 19.6813 13.3818 19.8465L12.5689 21.334C12.4971 21.4655 12.3866 21.5229 12.23 21.5229C12.164 21.5229 12.0864 21.4669 12.0275 21.4375H12.0261ZM12.9553 22.1022C12.7758 22.2211 12.4756 22.1512 12.4081 21.9399L12.9553 22.1022ZM12.8748 21.1143L13.422 21.2766C13.2425 21.3955 12.9423 21.3256 12.8748 21.1143ZM13.3459 20.2355L13.8931 20.3978C13.7136 20.5167 13.4134 20.4468 13.3459 20.2355Z" fill="white"/>
<path d="M19.7152 18.9607L18.9239 19.1132C18.9339 19.165 18.9426 19.2069 18.9469 19.2307C19.1896 20.7056 19.7827 22.1847 20.7722 23.3392L21.2979 23.0495C20.6186 22.1469 20.1733 21.082 19.8804 20.0046C19.7971 19.6631 19.7066 19.3133 19.7152 18.9607Z" fill="white"/>
<path d="M19.8747 19.1538C20.0901 20.5055 20.5999 21.8615 21.4415 22.9697L21.9169 22.7067C20.485 20.1543 20.7134 19.3371 20.6947 18.7689L19.8359 18.9355C19.8502 19.0306 19.8675 19.116 19.8747 19.1524V19.1538Z" fill="white"/>
<path d="M18.9584 20.0802C18.8822 19.7723 18.7989 19.4575 18.7875 19.1398L18.1297 19.2672C18.1412 19.3539 18.1556 19.4295 18.1613 19.4631C18.3767 21.0247 18.9454 22.5934 19.9191 23.8108L20.63 23.4176C19.81 22.459 19.2901 21.2766 18.9584 20.0802Z" fill="white"/>
<path d="M18.1584 20.3432C18.0837 19.999 18.0033 19.6464 18.0091 19.2895L17.3714 19.4127C17.8224 22.0476 19.168 24.1998 19.181 24.2166L19.7784 23.8863C18.9684 22.8732 18.4672 21.6138 18.1584 20.3418V20.3432Z" fill="white"/>
<path d="M2.90363 19.6575C2.90363 19.6464 2.88352 17.3556 2.90363 16.1326C2.90793 15.9073 2.92373 15.6471 2.98549 15.4386H2.38948L2.37512 15.4861C2.3148 15.6904 2.30331 15.9549 2.30044 16.1354C2.28033 17.3738 2.30044 19.6366 2.30044 19.6533C2.30044 19.6701 2.29039 19.859 2.35645 20.062L2.37368 20.1137H2.96825C2.89357 19.8842 2.90363 19.6701 2.90506 19.6575H2.90363ZM2.58911 19.7373C2.4498 19.7373 2.33634 19.6268 2.33634 19.491C2.33634 19.3553 2.4498 19.2447 2.58911 19.2447C2.72841 19.2447 2.84187 19.3553 2.84187 19.491C2.84187 19.6268 2.72841 19.7373 2.58911 19.7373Z" fill="white"/>
<path d="M2.58905 19.5834C2.6414 19.5834 2.68384 19.542 2.68384 19.491C2.68384 19.44 2.6414 19.3986 2.58905 19.3986C2.5367 19.3986 2.49426 19.44 2.49426 19.491C2.49426 19.542 2.5367 19.5834 2.58905 19.5834Z" fill="white"/>
<path d="M2.19269 19.6575C2.19269 19.6464 2.18263 17.3556 2.19269 16.1326C2.19412 15.9073 2.2013 15.6471 2.23146 15.4386H1.67711C1.61679 15.4386 1.56796 15.5365 1.56796 15.6583L1.52344 19.8842C1.52344 20.0102 1.57227 20.1137 1.63402 20.1137H2.22428C2.18838 19.8842 2.19412 19.6701 2.19412 19.6575H2.19269ZM1.85232 19.7373C1.71301 19.7373 1.59955 19.6268 1.59955 19.491C1.59955 19.3553 1.71301 19.2447 1.85232 19.2447C1.99162 19.2447 2.10508 19.3553 2.10508 19.491C2.10508 19.6268 1.99162 19.7373 1.85232 19.7373Z" fill="white"/>
<path d="M1.85235 19.5834C1.9047 19.5834 1.94714 19.542 1.94714 19.491C1.94714 19.44 1.9047 19.3986 1.85235 19.3986C1.80001 19.3986 1.75757 19.44 1.75757 19.491C1.75757 19.542 1.80001 19.5834 1.85235 19.5834Z" fill="white"/>
<path d="M34.9485 13.348H34.1069L32.6952 14.9278H21.6526V17.6285L21.8048 17.7615H31.5448C31.5448 17.7615 31.552 17.7615 31.5563 17.7615L31.5994 17.6313H32.2069C32.2069 17.6313 32.408 16.8015 32.408 16.0123C32.408 15.759 32.3347 15.5085 32.2658 15.2665L34.9471 15.2595V13.348H34.9485ZM23.3185 17.3585H22.8561C22.8561 17.3585 22.7498 17.2857 22.8561 17.1905H23.3085C23.3085 17.1905 23.4176 17.2745 23.3171 17.3585H23.3185ZM24.6025 17.3585H24.14C24.14 17.3585 24.0337 17.2857 24.14 17.1905H24.5924C24.5924 17.1905 24.7015 17.2745 24.601 17.3585H24.6025ZM25.8864 17.3585H25.4239C25.4239 17.3585 25.3177 17.2857 25.4239 17.1905H25.8763C25.8763 17.1905 25.9855 17.2745 25.8849 17.3585H25.8864ZM27.1703 17.3585H26.7079C26.7079 17.3585 26.6016 17.2857 26.7079 17.1905H27.1602C27.1602 17.1905 27.2694 17.2745 27.1689 17.3585H27.1703ZM28.4542 17.3585H27.9918C27.9918 17.3585 27.8855 17.2857 27.9918 17.1905H28.4442C28.4442 17.1905 28.5533 17.2745 28.4528 17.3585H28.4542ZM29.7381 17.3585H29.2757C29.2757 17.3585 29.1694 17.2857 29.2757 17.1905H29.7281C29.7281 17.1905 29.8372 17.2745 29.7367 17.3585H29.7381ZM31.0221 17.3585H30.5596C30.5596 17.3585 30.4533 17.2857 30.5596 17.1905H31.012C31.012 17.1905 31.1212 17.2745 31.0206 17.3585H31.0221ZM31.8622 16.8561H22.2802V15.2665C22.2802 15.2189 22.3204 15.1811 22.3692 15.1811H29.4437H29.4739L29.4868 15.1979C29.5084 15.2105 29.5213 15.2273 29.527 15.2511H29.5285C29.7611 15.5631 29.7425 16.0865 29.7109 16.3789C29.7037 16.4377 29.6922 16.4965 29.6764 16.5538H30.3255C30.383 16.1746 30.3083 15.2679 30.3083 15.2679H31.868C32.1408 15.9199 31.8637 16.8561 31.8637 16.8561H31.8622ZM33.9217 14.8355C33.9217 14.8355 33.1591 14.9894 33.4664 14.6479L34.0926 13.8433L34.6369 13.8657C34.6369 13.8657 34.634 13.9903 33.9217 14.8341V14.8355Z" fill="white"/>
<path d="M31.2634 14.3331V14.5598L14.9946 14.5402L14.8711 14.3037L13.771 14.0854L13.7494 13.3969L13.4622 13.0625H13.1606V14.599H12.9395V14.7571H32.2084V14.3331H31.2634ZM13.422 13.6068C13.3301 13.6068 13.2554 13.5341 13.2554 13.4445C13.2554 13.355 13.3301 13.2822 13.422 13.2822C13.5139 13.2822 13.5886 13.355 13.5886 13.4445C13.5886 13.5341 13.5139 13.6068 13.422 13.6068Z" fill="white"/>
<path d="M13.5053 13.4851C13.511 13.4725 13.5153 13.4599 13.5153 13.4445C13.5153 13.3941 13.4737 13.3522 13.4206 13.3522C13.4062 13.3522 13.3918 13.3564 13.3789 13.362L13.5039 13.4837L13.5053 13.4851Z" fill="white"/>
<path d="M13.3373 13.404C13.3315 13.4166 13.3272 13.4291 13.3272 13.4445C13.3272 13.4949 13.3689 13.5369 13.422 13.5369C13.4364 13.5369 13.4507 13.5327 13.4636 13.5271L13.3387 13.4054L13.3373 13.404Z" fill="white"/>
</svg>
