<svg width="9" height="9" viewBox="0 0 9 9" fill="none" xmlns="http://www.w3.org/2000/svg">
<path d="M4.5 9C4.38356 9 4.28603 8.96068 4.2074 8.88205C4.12849 8.80315 4.08904 8.70548 4.08904 8.58904V8.17808C3.23288 8.08219 2.49836 7.72781 1.88548 7.11493C1.27233 6.50178 0.917808 5.76712 0.821918 4.91096H0.410959C0.294521 4.91096 0.196849 4.87151 0.117945 4.7926C0.0393151 4.71397 0 4.61644 0 4.5C0 4.38356 0.0393151 4.28589 0.117945 4.20699C0.196849 4.12836 0.294521 4.08904 0.410959 4.08904H0.821918C0.917808 3.23288 1.27233 2.49822 1.88548 1.88507C2.49836 1.27219 3.23288 0.917808 4.08904 0.821918V0.410959C4.08904 0.294521 4.12849 0.196849 4.2074 0.117945C4.28603 0.0393151 4.38356 0 4.5 0C4.61644 0 4.71411 0.0393151 4.79301 0.117945C4.87164 0.196849 4.91096 0.294521 4.91096 0.410959V0.821918C5.76712 0.917808 6.50178 1.27219 7.11493 1.88507C7.72781 2.49822 8.08219 3.23288 8.17808 4.08904H8.58904C8.70548 4.08904 8.80315 4.12836 8.88205 4.20699C8.96068 4.28589 9 4.38356 9 4.5C9 4.61644 8.96068 4.71397 8.88205 4.7926C8.80315 4.87151 8.70548 4.91096 8.58904 4.91096H8.17808C8.08219 5.76712 7.72781 6.50178 7.11493 7.11493C6.50178 7.72781 5.76712 8.08219 4.91096 8.17808V8.58904C4.91096 8.70548 4.87164 8.80315 4.79301 8.88205C4.71411 8.96068 4.61644 9 4.5 9ZM4.5 7.37671C5.29452 7.37671 5.9726 7.09589 6.53425 6.53425C7.09589 5.9726 7.37671 5.29452 7.37671 4.5C7.37671 3.70548 7.09589 3.0274 6.53425 2.46575C5.9726 1.90411 5.29452 1.62329 4.5 1.62329C3.70548 1.62329 3.0274 1.90411 2.46575 2.46575C1.90411 3.0274 1.62329 3.70548 1.62329 4.5C1.62329 5.29452 1.90411 5.9726 2.46575 6.53425C3.0274 7.09589 3.70548 7.37671 4.5 7.37671ZM4.5 6.14384C4.04795 6.14384 3.66096 5.98288 3.33904 5.66096C3.01712 5.33904 2.85616 4.95205 2.85616 4.5C2.85616 4.04795 3.01712 3.66096 3.33904 3.33904C3.66096 3.01712 4.04795 2.85616 4.5 2.85616C4.95205 2.85616 5.33904 3.01712 5.66096 3.33904C5.98288 3.66096 6.14384 4.04795 6.14384 4.5C6.14384 4.95205 5.98288 5.33904 5.66096 5.66096C5.33904 5.98288 4.95205 6.14384 4.5 6.14384Z" fill="white"/>
</svg>
